<?xml version="1.0" encoding="UTF-8" standalone="no"?>
<!-- Created with Inkscape (http://www.inkscape.org/) -->

<svg
   version="1.1"
   id="svg1"
   width="512"
   height="512"
   viewBox="0 0 512 512"
   sodipodi:docname="easter-egg.png"
   xmlns:inkscape="http://www.inkscape.org/namespaces/inkscape"
   xmlns:sodipodi="http://sodipodi.sourceforge.net/DTD/sodipodi-0.dtd"
   xmlns="http://www.w3.org/2000/svg"
   xmlns:svg="http://www.w3.org/2000/svg">
  <defs
     id="defs1" />
  <sodipodi:namedview
     id="namedview1"
     pagecolor="#ffffff"
     bordercolor="#000000"
     borderopacity="0.25"
     inkscape:showpageshadow="2"
     inkscape:pageopacity="0.0"
     inkscape:pagecheckerboard="0"
     inkscape:deskcolor="#d1d1d1">
    <inkscape:page
       x="0"
       y="0"
       width="512"
       height="512"
       id="page2"
       margin="0"
       bleed="0" />
  </sodipodi:namedview>
  <g
     inkscape:groupmode="layer"
     inkscape:label="Image"
     id="g1">
    <g
       id="g1366"
       transform="translate(0,-0.69018272)">
      <path
         style="fill:#fdd4e6"
         d="m 236.8125,511.31689 c 0.72187,-0.28887 1.58437,-0.25335 1.91667,0.0789 0.33229,0.33229 -0.25834,0.56864 -1.3125,0.52522 -1.16495,-0.048 -1.4019,-0.28494 -0.60417,-0.60416 z m 37,0 c 0.72187,-0.28887 1.58438,-0.25335 1.91667,0.0789 0.33229,0.33229 -0.25834,0.56864 -1.3125,0.52522 -1.16495,-0.048 -1.4019,-0.28494 -0.60417,-0.60416 z M 389.5,459 c 2.14824,-2.2 4.1309,-4 4.4059,-4 0.275,0 -1.25766,1.8 -3.4059,4 -2.14824,2.2 -4.1309,4 -4.4059,4 -0.275,0 1.25766,-1.8 3.4059,-4 z m -276.62756,-9.75 c -1.24387,-1.58606 -1.2085,-1.62143 0.37756,-0.37756 0.9625,0.75485 1.75,1.54235 1.75,1.75 0,0.82304 -0.82119,0.29331 -2.12756,-1.37244 z m -32.883446,-121 c -0.0061,-2.0625 -0.27831,-5.36589 -0.605017,-7.34086 l -0.594011,-3.59085 5.550594,-1.11472 c 23.99643,-4.81918 36.54118,-29.30782 26.38152,-51.49944 -4.16315,-9.09352 -14.503847,-17.51048 -23.795684,-19.36885 -1.609518,-0.3219 -2.915395,-0.86653 -2.90195,-1.21028 0.02207,-0.56432 1.156609,-5.94757 2.502696,-11.875 L 87.038104,230 H 255.95166 c 160.00756,0 168.94067,0.0923 169.42763,1.75 0.28274,0.9625 0.80236,3.55 1.15471,5.75 0.35235,2.2 0.82699,4.69399 1.05476,5.54221 0.30134,1.12221 -0.87987,1.88176 -4.33732,2.78901 -5.64261,1.48065 -14.18404,7.07822 -17.55279,11.50312 -11.55684,15.18003 -10.39387,36.28948 2.70037,49.01562 5.45535,5.302 11.10281,8.24702 18.93259,9.87293 5.7133,1.18641 5.81982,1.26998 5.25,4.11904 C 432.26173,321.94137 432,325.21875 432,327.625 V 332 H 256 80 Z M 182.34391,313.19184 c 7.45856,-3.52419 13.8178,-9.78634 17.45156,-17.18512 2.39196,-4.87028 2.70453,-6.66247 2.70453,-15.50672 0,-8.84425 -0.31257,-10.63644 -2.70453,-15.50672 C 196.12045,257.5105 189.7933,251.33325 182,247.61939 c -5.70576,-2.71905 -7.53862,-3.09513 -15,-3.07784 -7.18937,0.0167 -9.45944,0.45816 -14.72237,2.86325 -7.30747,3.3394 -15.29514,11.22432 -18.58352,18.34444 -3.15603,6.83355 -3.164,22.65136 -0.0148,29.46799 4.38141,9.48395 14.89734,18.1931 25.06665,20.75987 6.53697,1.64996 16.76673,0.44254 23.59799,-2.78526 z m 88.68235,0.21589 c 4.13805,-1.85705 7.73157,-4.53909 11.42098,-8.52409 C 289.32934,297.45016 292,290.63323 292,280.5 c 0,-10.13323 -2.67066,-16.95016 -9.55276,-24.38364 -7.70343,-8.32063 -15.10647,-11.5551 -26.44724,-11.5551 -7.23335,0 -9.43614,0.42773 -14.78203,2.87031 -8.05586,3.68078 -16.1954,12.21944 -19.13318,20.07136 -2.81545,7.52495 -2.82142,18.45323 -0.0142,25.95622 3.79848,10.15235 14.75518,19.76167 25.67532,22.51795 6.26793,1.58205 16.56115,0.44602 23.28034,-2.56937 z m 88.94034,0.0268 c 7.05257,-3.165 15.07808,-11.12244 18.33929,-18.18374 3.16416,-6.85115 3.16416,-22.65037 0,-29.50152 -3.28838,-7.12012 -11.27605,-15.00504 -18.58352,-18.34444 -5.26293,-2.40509 -7.533,-2.84658 -14.72237,-2.86325 -7.46138,-0.0173 -9.29424,0.35879 -15,3.07784 -31.20011,14.86825 -26.75596,59.90172 6.74592,68.35771 6.24257,1.57565 16.56183,0.44572 23.22068,-2.5426 z M 63.078947,317.4167 c 0.04798,-1.16495 0.284941,-1.4019 0.604167,-0.60417 0.288871,0.72187 0.253344,1.58438 -0.07895,1.91667 -0.332292,0.33229 -0.568641,-0.25834 -0.52522,-1.3125 z m 385.000003,-3 c 0.048,-1.16495 0.28494,-1.4019 0.60416,-0.60417 0.28887,0.72187 0.25335,1.58438 -0.0789,1.91667 -0.33229,0.33229 -0.56864,-0.25834 -0.52522,-1.3125 z m -385.000003,-28 c 0.04798,-1.16495 0.284941,-1.4019 0.604167,-0.60417 0.288871,0.72187 0.253344,1.58438 -0.07895,1.91667 -0.332292,0.33229 -0.568641,-0.25834 -0.52522,-1.3125 z M 448.15789,285 c 0,-1.375 0.22698,-1.9375 0.50439,-1.25 0.27741,0.6875 0.27741,1.8125 0,2.5 -0.27741,0.6875 -0.50439,0.125 -0.50439,-1.25 z M 357.92431,53.25 355.5,50.5 l 2.75,2.424314 c 1.5125,1.333373 2.75,2.570873 2.75,2.75 0,0.784274 -0.8098,0.145975 -3.07569,-2.424314 z M 162,44.5 c 1.86578,-1.925 3.61733,-3.5 3.89233,-3.5 0.275,0 -1.02655,1.575 -2.89233,3.5 -1.86578,1.925 -3.61733,3.5 -3.89233,3.5 -0.275,0 1.02655,-1.575 2.89233,-3.5 z M 344.87244,40.25 C 343.62857,38.663944 343.66394,38.628574 345.25,39.872445 346.91575,41.178814 347.44548,42 346.62244,42 c -0.20765,0 -0.99515,-0.7875 -1.75,-1.75 z"
         id="path1372" />
      <path
         style="fill:#fc92ba"
         d="m 79.078947,323.41667 c 0.04798,-1.16495 0.284941,-1.4019 0.604167,-0.60417 0.288871,0.72187 0.253344,1.58438 -0.07895,1.91667 -0.332292,0.33229 -0.568641,-0.25834 -0.52522,-1.3125 z m 353.000003,-1 c 0.048,-1.16495 0.28494,-1.4019 0.60416,-0.60417 0.28887,0.72187 0.25335,1.58438 -0.0789,1.91667 -0.33229,0.33229 -0.56864,-0.25834 -0.52522,-1.3125 z M 63.157895,314 c 0,-1.375 0.226973,-1.9375 0.504386,-1.25 0.277412,0.6875 0.277412,1.8125 0,2.5 -0.277413,0.6875 -0.504386,0.125 -0.504386,-1.25 z M 407.40499,305.75 405.5,303.5 l 2.25,1.90499 c 1.2375,1.04774 2.25,2.06024 2.25,2.25 0,0.80025 -0.80479,0.20945 -2.59501,-1.90499 z M 63.157895,290 c 0,-1.375 0.226973,-1.9375 0.504386,-1.25 0.277412,0.6875 0.277412,1.8125 0,2.5 -0.277413,0.6875 -0.504386,0.125 -0.504386,-1.25 z m 384.921055,-1.58333 c 0.048,-1.16495 0.28494,-1.4019 0.60416,-0.60417 0.28887,0.72187 0.25335,1.58438 -0.0789,1.91667 -0.33229,0.33229 -0.56864,-0.25834 -0.52522,-1.3125 z m -334,-8 c 0.048,-1.16495 0.28494,-1.4019 0.60416,-0.60417 0.28887,0.72187 0.25335,1.58438 -0.0789,1.91667 -0.3323,0.33229 -0.56864,-0.25834 -0.52522,-1.3125 z m 283,0 c 0.048,-1.16495 0.28494,-1.4019 0.60416,-0.60417 0.28887,0.72187 0.25335,1.58438 -0.0789,1.91667 -0.33229,0.33229 -0.56864,-0.25834 -0.52522,-1.3125 z M 407.5,255 c 0.99549,-1.1 2.03498,-2 2.30998,-2 0.275,0 -0.31449,0.9 -1.30998,2 -0.99549,1.1 -2.03498,2 -2.30998,2 -0.275,0 0.31449,-0.9 1.30998,-2 z m -304.62756,-0.75 c -1.24387,-1.58606 -1.2085,-1.62143 0.37756,-0.37756 0.9625,0.75485 1.75,1.54235 1.75,1.75 0,0.82304 -0.82119,0.29331 -2.12756,-1.37244 z M 91,213.41413 c 0,-0.32222 0.769106,-3.47222 1.709124,-7 L 94.418249,200 H 209.64402 c 75.13211,0 116.14982,-0.35132 117.88139,-1.00966 1.51459,-0.57585 3.14058,-2.2945 3.78434,-4 L 332.43848,192 h 14.78076 C 361.1478,192 362,192.11113 362,193.92742 c 0,1.06008 1.18569,2.86008 2.63486,4 2.23832,1.76067 4.04006,2.07258 11.97206,2.07258 h 9.33721 l 1.5964,5.75 c 0.87802,3.1625 1.77647,6.3125 1.99655,7 0.31891,0.99621 -29.94683,1.25 -149.06846,1.25 C 158.26088,214 91,213.73636 91,213.41413 Z M 200.34195,64.547796 C 198.60503,63.79214 193.59599,60.659754 189.21075,57.586938 184.82552,54.514122 180.69664,52 180.03546,52 c -2.45306,0 -0.15249,-2.663258 8.04508,-9.313388 19.80464,-16.066145 42.91768,-26.210873 61.06834,-26.803991 4.625,-0.151133 6.73733,0.433004 12.8728,3.559811 9.68704,4.936777 19.98358,11.952578 30.72121,20.93264 C 302.77716,48.766903 315,60.541175 315,61.815366 c 0,1.350139 -4.95559,3.273788 -9.95331,3.863653 C 299.10694,66.38007 293.77016,64.864278 287,60.553259 283.975,58.627037 278.125,55.352053 274,53.275518 266.74646,49.624067 266.15496,49.5 256,49.5 c -9.66569,0 -11.01915,0.246017 -17.0336,3.096195 -3.59348,1.702907 -8.81694,4.736611 -11.60769,6.741565 -2.79075,2.004955 -6.69868,4.324167 -8.68428,5.153806 -4.46413,1.865233 -14.10638,1.894808 -18.33248,0.05623 z M 351,46.5 c -2.42903,-2.475 -4.19142,-4.5 -3.91642,-4.5 0.275,0 2.48739,2.025 4.91642,4.5 2.42903,2.475 4.19142,4.5 3.91642,4.5 -0.275,0 -2.48739,-2.025 -4.91642,-4.5 z"
         id="path1371" />
      <path
         style="fill:#6adcfd"
         d="m 234.5,495.8306 c -4.4,-0.4993 -12.275,-1.84714 -17.5,-2.99521 -15.50761,-3.40742 -15.56457,-3.40827 -18.46703,-0.27647 l -2.56384,2.76643 -9.23456,-3.71061 c -15.89844,-6.38828 -16.15857,-6.56411 -16.79933,-11.35497 -0.31062,-2.32244 -0.76062,-4.38812 -1,-4.59039 -0.23938,-0.20226 -4.45909,-2.9959 -9.37713,-6.20808 -12.32692,-8.05123 -24.97838,-18.87745 -33.53419,-28.69618 -11.29404,-12.96115 -11.47613,-14.45266 -0.92896,-7.60935 14.33136,9.2986 25.32494,12.44368 37.57136,10.74854 7.62463,-1.0554 13.05662,-3.14978 20.9071,-8.06103 10.4991,-6.56822 15.16114,-8.23528 22.92658,-8.19814 7.89382,0.0377 12.29726,1.64416 22.30956,8.1387 17.3153,11.23169 37.0212,11.25946 54.26257,0.0765 10.10099,-6.55163 14.51728,-8.17414 22.42787,-8.23977 7.48098,-0.0621 12.04053,1.66989 26,9.87621 16.5588,9.73437 34.56221,9.02887 51.64811,-2.02394 3.72185,-2.40765 8.17667,-5.10652 9.8996,-5.99748 4.21511,-2.17972 3.47119,-0.93984 -6.14358,10.23935 -16.24993,18.89397 -39.42517,35.16718 -63.77801,44.7837 C 297.264,494.71089 263.1135,499.07756 234.5,495.8306 Z m 96.39821,-306.69276 c -0.54877,-1.57419 -2.12154,-3.37419 -3.49504,-4 C 325.58375,184.30885 294.25734,184 211.99369,184 H 99.081491 l 2.643929,-7.5 2.64393,-7.5 H 256 407.63065 l 2.64393,7.5 2.64393,7.5 h -21.89416 c -12.31563,0 -23.05596,0.44172 -24.54976,1.00966 -1.51459,0.57585 -3.14058,2.2945 -3.78434,4 L 361.56152,192 h -14.83278 -14.83278 z"
         id="path1370" />
      <path
         style="fill:#fdeb57"
         d="m 145.80708,427.50165 c -2.03111,-0.74659 -7.28664,-3.6627 -11.67896,-6.48026 C 124.5864,414.90063 116.84227,412 110.04273,412 h -5.00723 l -4.97737,-10.25 C 97.320578,396.1125 93.678981,387.675 91.965692,383 88.403484,373.27991 83,353.04925 83,349.43242 V 347 h 157.11354 157.11355 l -0.69241,4.61728 c -2.46248,16.42105 -12.56072,44.6427 -22.12513,61.83338 -8.6528,15.55217 -7.9827,14.93842 -16.79582,15.38346 -9.18879,0.46402 -13.18032,-0.78517 -24.43607,-7.64752 -11.55052,-7.04206 -16.74673,-8.65157 -27.67766,-8.57308 -10.33194,0.0742 -17.77915,2.29678 -26.01231,7.76329 -9.36109,6.21541 -13.61167,7.91504 -20.98769,8.3921 -8.78401,0.56811 -13.37781,-0.66612 -21.53811,-5.78675 -22.6559,-14.21667 -39.66257,-14.33174 -60.63616,-0.41027 -2.89697,1.9229 -7.13697,4.15587 -9.42221,4.96215 -5.12125,1.80688 -16.13866,1.78997 -21.09644,-0.0324 z M 111.52783,151.75 c 1.78976,-6.0775 19.38874,-39.80715 26.92197,-51.59779 7.76119,-12.147425 22.84685,-32.493668 26.08481,-35.180933 2.24736,-1.865145 8.2792,0.04601 14.78443,4.684349 3.39953,2.423929 9.10596,5.85552 12.68096,7.625758 6.13083,3.035814 7.12475,3.218616 17.5,3.218616 12.52171,0 16.36758,-1.306664 28.68828,-9.747075 12.65992,-8.67279 22.96352,-8.67279 35.62344,0 C 286.13242,79.193336 289.97829,80.5 302.5,80.5 c 9.9101,0 11.58169,-0.272475 16.87084,-2.75 3.22897,-1.5125 6.00229,-2.75 6.16294,-2.75 0.16065,0 3.86966,5.2875 8.24225,11.75 12.76198,18.86168 22.28842,36.07738 31.6602,57.2147 L 369.88565,154 H 240.37544 110.86522 Z"
         id="path1369" />
      <path
         style="fill:#f66a9f"
         d="m 240.75,511.33772 c 0.6875,-0.27741 1.8125,-0.27741 2.5,0 0.6875,0.27741 0.125,0.50439 -1.25,0.50439 -1.375,0 -1.9375,-0.22698 -1.25,-0.50439 z m 28.0625,-0.0208 c 0.72187,-0.28887 1.58438,-0.25335 1.91667,0.0789 0.33229,0.33229 -0.25834,0.56864 -1.3125,0.52522 -1.16495,-0.048 -1.4019,-0.28494 -0.60417,-0.60416 z M 196.15789,498 c 0,-1.375 0.22698,-1.9375 0.50439,-1.25 0.27741,0.6875 0.27741,1.8125 0,2.5 -0.27741,0.6875 -0.50439,0.125 -0.50439,-1.25 z m -68.28545,-33.75 c -1.24387,-1.58606 -1.2085,-1.62143 0.37756,-0.37756 0.9625,0.75485 1.75,1.54235 1.75,1.75 0,0.82304 -0.82119,0.29331 -2.12756,-1.37244 z m -11,-11 c -1.24387,-1.58606 -1.2085,-1.62143 0.37756,-0.37756 0.9625,0.75485 1.75,1.54235 1.75,1.75 0,0.82304 -0.82119,0.29331 -2.12756,-1.37244 z M 432.07895,325.41667 c 0.048,-1.16495 0.28494,-1.4019 0.60416,-0.60417 0.28887,0.72187 0.25335,1.58438 -0.0789,1.91667 -0.33229,0.33229 -0.56864,-0.25834 -0.52522,-1.3125 z m 15,-2 c 0.048,-1.16495 0.28494,-1.4019 0.60416,-0.60417 0.28887,0.72187 0.25335,1.58438 -0.0789,1.91667 -0.33229,0.33229 -0.56864,-0.25834 -0.52522,-1.3125 z M 79.8125,316.31689 c 0.721875,-0.28887 1.584375,-0.25335 1.916667,0.0789 0.332291,0.33229 -0.258334,0.56864 -1.3125,0.52522 -1.164943,-0.048 -1.4019,-0.28494 -0.604167,-0.60416 z m 84.9375,-0.0226 c 1.2375,-0.23836 3.2625,-0.23836 4.5,0 1.2375,0.23835 0.225,0.43337 -2.25,0.43337 -2.475,0 -3.4875,-0.19502 -2.25,-0.43337 z m 89,0 c 1.2375,-0.23836 3.2625,-0.23836 4.5,0 1.2375,0.23835 0.225,0.43337 -2.25,0.43337 -2.475,0 -3.4875,-0.19502 -2.25,-0.43337 z m 89,0 c 1.2375,-0.23836 3.2625,-0.23836 4.5,0 1.2375,0.23835 0.225,0.43337 -2.25,0.43337 -2.475,0 -3.4875,-0.19502 -2.25,-0.43337 z m 87,0.0435 c 0.6875,-0.27741 1.8125,-0.27741 2.5,0 0.6875,0.27741 0.125,0.50439 -1.25,0.50439 -1.375,0 -1.9375,-0.22698 -1.25,-0.50439 z M 63.369965,302 c 0,-5.775 0.165274,-8.1375 0.367277,-5.25 0.202002,2.8875 0.202002,7.6125 0,10.5 -0.202003,2.8875 -0.367277,0.525 -0.367277,-5.25 z m 385.004105,-1.5 c 0.002,-6.05 0.16696,-8.39607 0.36601,-5.21349 0.19905,3.18258 0.1972,8.13258 -0.004,11 -0.20131,2.86742 -0.36417,0.26349 -0.36191,-5.78651 z m -285.57493,0.5476 c -6.14512,-1.1902 -11.66026,-5.55232 -14.3652,-11.36197 -3.19074,-6.85305 -3.1039,-12.00549 0.31606,-18.75145 7.29215,-14.38396 27.02084,-15.31379 36.02239,-1.69776 2.33044,3.52509 2.72761,5.16587 2.72761,11.26817 0,6.10342 -0.39674,7.74176 -2.72761,11.26358 -4.67989,7.07108 -13.70241,10.88134 -21.97325,9.27943 z m 88.32411,-0.0651 c -4.98817,-1.15482 -11.15866,-5.93398 -13.53419,-10.48251 -2.8333,-5.42503 -2.84215,-14.5445 -0.0194,-20 2.47558,-4.78454 9.70718,-9.97288 15.07735,-10.81731 5.23585,-0.8233 10.90963,0.62378 15.69024,4.00176 9.19317,6.49589 11.2187,19.92568 4.45861,29.56169 -4.08565,5.82379 -14.25453,9.45373 -21.6726,7.73637 z m 89,0 c -5.15304,-1.19298 -11.20163,-5.98084 -13.87439,-10.9825 -1.96805,-3.6829 -2.33789,-5.61369 -2.0368,-10.63343 1.28646,-21.44821 29.07622,-27.3863 39.08262,-8.35113 2.36396,4.49696 2.80944,6.4039 2.47393,10.59005 -1.04231,13.00502 -13.26804,22.24249 -25.64536,19.37702 z M 78.704838,292.25 c 0.396507,-10.01836 2.302697,-31.56759 2.841262,-32.1201 0.651848,-0.66872 4.893792,0.79153 8.163878,2.81033 1.765488,1.08993 4.465488,3.8789 6,6.1977 2.407963,3.63868 2.790022,5.20701 2.790022,11.4529 0,6.44776 -0.331663,7.70878 -3.041591,11.56454 -3.498868,4.97828 -9.578977,8.80434 -14.029143,8.82818 L 78.358531,301 Z m 344.836752,6.47506 c -2.17712,-1.23311 -5.32712,-4.18948 -7,-6.56969 -2.70993,-3.85576 -3.04159,-5.11678 -3.04159,-11.56454 0,-6.24589 0.38206,-7.81422 2.79002,-11.4529 1.53451,-2.3188 4.23451,-5.10777 6,-6.1977 3.30007,-2.03731 7.50796,-3.47558 8.18566,-2.79789 0.45642,0.45643 2.32572,22.15879 2.85166,33.10766 l 0.37229,7.75 -3.09982,-0.0165 c -1.70489,-0.009 -4.88109,-1.02537 -7.05822,-2.25849 z m 23.53736,-25.30839 c 0.048,-1.16495 0.28494,-1.4019 0.60416,-0.60417 0.28887,0.72187 0.25335,1.58438 -0.0789,1.91667 -0.33229,0.33229 -0.56864,-0.25834 -0.52522,-1.3125 z m -382.000003,-8 c 0.04798,-1.16495 0.284941,-1.4019 0.604167,-0.60417 0.288871,0.72187 0.253344,1.58438 -0.07895,1.91667 -0.332292,0.33229 -0.568641,-0.25834 -0.52522,-1.3125 z m 381.000003,-3 c 0.048,-1.16495 0.28494,-1.4019 0.60416,-0.60417 0.28887,0.72187 0.25335,1.58438 -0.0789,1.91667 -0.33229,0.33229 -0.56864,-0.25834 -0.52522,-1.3125 z M 164.75,244.29427 c 1.2375,-0.23836 3.2625,-0.23836 4.5,0 1.2375,0.23835 0.225,0.43337 -2.25,0.43337 -2.475,0 -3.4875,-0.19502 -2.25,-0.43337 z m 89,0 c 1.2375,-0.23836 3.2625,-0.23836 4.5,0 1.2375,0.23835 0.225,0.43337 -2.25,0.43337 -2.475,0 -3.4875,-0.19502 -2.25,-0.43337 z m 89,0 c 1.2375,-0.23836 3.2625,-0.23836 4.5,0 1.2375,0.23835 0.225,0.43337 -2.25,0.43337 -2.475,0 -3.4875,-0.19502 -2.25,-0.43337 z M 86.654508,229.75 c 0.606097,-0.98068 338.084882,-0.98068 338.690982,0 0.25494,0.4125 -75.95053,0.75 -169.34549,0.75 -93.39496,0 -169.600431,-0.3375 -169.345492,-0.75 z m 302.882572,-17 c -0.22008,-0.6875 -1.11382,-3.8213 -1.98608,-6.964 l -1.58594,-5.714 -9.73253,-0.32671 c -5.35289,-0.17969 1.78341,-0.42089 15.85844,-0.536 L 417.68195,199 l 2.00134,7.5 2.00134,7.5 h -15.8737 c -11.81888,0 -15.97592,-0.3193 -16.27385,-1.25 z M 151.75,199.25016 c 32.0375,-0.14645 84.4625,-0.14645 116.5,0 32.0375,0.14645 5.825,0.26627 -58.25,0.26627 -64.075,0 -90.2875,-0.11982 -58.25,-0.26627 z M 328,198.62244 c 0,-0.20765 0.7875,-0.99515 1.75,-1.75 1.58606,-1.24387 1.62143,-1.2085 0.37756,0.37756 C 328.82119,198.91575 328,199.44548 328,198.62244 Z m 3.07895,-5.20577 c 0.048,-1.16495 0.28494,-1.4019 0.60416,-0.60417 0.28887,0.72187 0.25335,1.58437 -0.0789,1.91667 -0.33229,0.33229 -0.56864,-0.25834 -0.52522,-1.3125 z M 207.76166,66.292739 c 1.24391,-0.239193 3.04391,-0.230112 4,0.02018 0.95609,0.250292 -0.0617,0.445996 -2.26166,0.434897 -2.2,-0.0111 -2.98225,-0.215885 -1.73834,-0.455077 z M 315,62.034898 C 315,59.288029 289.7429,36.93622 276.67368,28.117198 270.23762,23.774187 258.31006,17.239631 254,15.695343 c -3.26727,-1.170659 9.23196,-0.609027 17.11901,0.769213 19.07875,3.333961 39.00057,13.462426 56.56975,28.760663 6.15567,5.360006 7.2487,6.774781 5.23407,6.774781 -0.68412,0 -4.43412,2.159097 -8.33334,4.797993 C 315.07275,63.238686 315,63.278417 315,62.034898 Z M 178,51.059017 c 0,-0.517541 0.44485,-1.215913 0.98855,-1.551938 0.56686,-0.350339 0.7345,0.05106 0.39301,0.940983 C 178.71677,52.180479 178,52.497449 178,51.059017 Z m 70.8125,-1.742131 c 0.72187,-0.288871 1.58437,-0.253344 1.91667,0.07895 0.33229,0.332292 -0.25834,0.568641 -1.3125,0.52522 -1.16495,-0.04798 -1.4019,-0.284941 -0.60417,-0.604167 z m 13,0 c 0.72187,-0.288871 1.58438,-0.253344 1.91667,0.07895 0.33229,0.332292 -0.25834,0.568641 -1.3125,0.52522 -1.16495,-0.04798 -1.4019,-0.284941 -0.60417,-0.604167 z M 185.5,44 c 0.99549,-1.1 2.03498,-2 2.30998,-2 0.275,0 -0.31449,0.9 -1.30998,2 -0.99549,1.1 -2.03498,2 -2.30998,2 -0.275,0 0.31449,-0.9 1.30998,-2 z m 61.75,-28.689326 c 0.9625,-0.251527 2.5375,-0.251527 3.5,0 0.9625,0.251528 0.175,0.457323 -1.75,0.457323 -1.925,0 -2.7125,-0.205795 -1.75,-0.457323 z"
         id="path1368" />
      <path
         style="fill:#fadf00"
         d="m 155.8125,429.31689 c 0.72187,-0.28887 1.58437,-0.25335 1.91667,0.0789 0.33229,0.33229 -0.25834,0.56864 -1.3125,0.52522 -1.16495,-0.048 -1.4019,-0.28494 -0.60417,-0.60416 z m 199,0 c 0.72187,-0.28887 1.58438,-0.25335 1.91667,0.0789 0.33229,0.33229 -0.25834,0.56864 -1.3125,0.52522 -1.16495,-0.048 -1.4019,-0.28494 -0.60417,-0.60416 z M 367,426.58263 c 0,-0.22956 2.09669,-3.94206 4.65932,-8.25 10.35276,-17.4037 18.94351,-39.54118 23.50868,-60.57951 l 2.332,-10.74689 16.1461,-0.003 16.1461,-0.003 -1.97022,9.25 c -2.84692,13.36604 -9.1021,31.58069 -15.22797,44.34282 l -5.3246,11.09281 -6.4892,0.60597 c -8.41145,0.78548 -14.4563,3.17222 -24.15852,9.53873 C 369.45216,426.53491 367,427.74607 367,426.58263 Z M 367.82873,149.25 c -9.90214,-22.84583 -21.3254,-43.76726 -34.30159,-62.822538 l -8.22111,-12.072538 6.89394,-4.640958 c 8.30122,-5.588333 12.95709,-6.779035 15.96436,-4.08276 3.43471,3.079513 19.87417,25.462755 26.83175,36.532924 C 381.6122,112.691 401,150.38105 401,152.71597 401,153.70632 397.44197,154 385.44377,154 h -15.55623 z"
         id="path1367" />
      <path
         style="fill:#030303"
         d="m 235.71711,510.88337 c -11.68197,-1.12569 -33.65028,-5.61947 -36.46711,-7.45962 -3.0562,-1.99652 -3.14243,-8.53132 -0.15203,-11.52172 2.36482,-2.36482 2.98071,-2.33342 17.90203,0.91266 41.00232,8.91991 88.0224,2.78154 123,-16.05739 18.0287,-9.71026 34.76355,-22.92663 46.90413,-37.04262 9.61477,-11.17919 10.35869,-12.41907 6.14358,-10.23935 -1.72293,0.89096 -6.17775,3.58983 -9.8996,5.99748 -17.0859,11.05281 -35.08931,11.75831 -51.64811,2.02394 -13.95947,-8.20632 -18.51902,-9.93828 -26,-9.87621 -7.91059,0.0656 -12.32688,1.68814 -22.42787,8.23977 -17.24137,11.18299 -36.94727,11.15522 -54.26257,-0.0765 -10.0123,-6.49454 -14.41574,-8.10095 -22.30956,-8.1387 -7.76544,-0.0371 -12.42748,1.62992 -22.92658,8.19814 -19.56987,12.24289 -36.67902,11.4566 -58.47846,-2.68751 -10.54717,-6.84331 -10.36508,-5.3518 0.92896,7.60935 8.53381,9.79349 21.16793,20.612 33.53419,28.71512 4.91804,3.2226 9.2725,6.34538 9.67658,6.93952 2.65818,3.90845 -1.22551,11.58024 -5.86228,11.58024 -2.75172,0 -14.17114,-6.98126 -24.3701,-14.89867 C 99.062619,442.09636 72.696907,392.18645 65.535561,334.02986 63.521485,317.67374 63.534646,285.14397 65.562799,266.70681 74.912563,181.71167 113.11518,94.728183 162.94972,44.966642 185.22217,22.726824 206.22588,9.8241148 230.83046,3.2670804 239.24509,1.024612 242.51159,0.69018272 256,0.69018272 c 13.48841,0 16.75491,0.33442928 25.16954,2.57689768 29.53855,7.8719176 56.36012,26.5315926 83.77644,58.2829826 64.16403,74.309657 97.33541,201.140557 77.40279,295.949937 -9.1609,43.57377 -30.7545,82.41416 -60.07752,108.06136 -39.09884,34.19757 -92.05332,50.57379 -146.55414,45.32201 z m -67.62304,-83.86336 c 2.52674,-0.94015 6.70204,-3.15968 9.27844,-4.93229 11.40179,-7.84464 23.93125,-11.06055 35.4942,-9.1102 7.28597,1.22894 16.3048,5.01264 23.40922,9.82096 6.8231,4.61792 12.52438,6.43688 20.10019,6.41285 7.27214,-0.0231 8.82412,-0.63571 26.83329,-10.59253 16.5896,-9.17198 33.16951,-8.06369 51.37152,3.43397 9.03567,5.70755 13.61337,7.23734 21.41907,7.15788 7.16219,-0.0729 12.79421,-2.17484 22,-8.21065 8.9278,-5.85354 14.29748,-7.89728 22.88471,-8.71006 l 6.3847,-0.60431 5.3246,-11.09281 c 6.12587,-12.76213 12.38105,-30.97678 15.22797,-44.34282 L 429.7922,347 H 255.87705 81.961896 l 0.614666,2.75 c 4.679884,20.93767 10.72064,38.85266 17.999318,53.38032 l 4.32397,8.63031 6.32737,0.4029 c 6.82743,0.43474 15.90915,4.28236 27.09838,11.48068 9.61928,6.18833 19.26867,7.28259 29.76847,3.3758 z M 432.35815,328.25 c 0.34091,-2.0625 0.62479,-5.59982 0.63084,-7.86071 l 0.011,-4.11071 -5.0278,-0.59547 c -6.42147,-0.76052 -15.98568,-5.84875 -20.60538,-10.9622 -1.97807,-2.18949 -4.78231,-6.50989 -6.23165,-9.6009 C 398.89977,290.35259 398.5,288.13464 398.5,280.5 c 0,-7.63464 0.39977,-9.85259 2.63517,-14.62001 3.74998,-7.99758 8.96268,-13.29032 17.09748,-17.35999 3.86984,-1.936 7.6506,-3.52 8.40171,-3.52 1.65249,0 1.65796,-1.67405 0.0311,-9.5 l -1.24731,-6 H 256 86.581894 l -1.247312,6 c -1.914161,9.20777 -1.945623,9.12166 4.018084,10.99748 10.771624,3.38809 19.997924,13.02094 23.277884,24.30361 5.85783,20.15023 -8.45011,42.49524 -28.749974,44.89946 L 79,316.27858 l 0.01101,4.11071 c 0.0061,2.26089 0.289932,5.79821 0.630842,7.86071 L 80.261685,332 H 256 431.73832 Z M 156.5,314.9975 C 150.67393,313.18422 142.52355,307.43978 138.76816,302.5 134.50522,296.89258 131,286.96555 131,280.5 c 0,-11.40661 7.34905,-24.46896 17.03467,-30.27774 7.39527,-4.43519 12.0145,-5.51624 21.46533,-5.02361 13.66363,0.71224 24.27761,7.98474 30.35889,20.80135 2.21216,4.66226 2.60966,6.87085 2.60966,14.5 0,7.62915 -0.3975,9.83774 -2.60966,14.5 -3.68925,7.77529 -8.71056,13.10727 -16.03288,17.02487 -5.65761,3.02694 -7.27695,3.41212 -15.32601,3.64545 -4.95,0.14349 -10.35,-0.15928 -12,-0.67282 z m 21.27239,-16.66453 c 2.34982,-1.34394 5.49982,-4.2981 7,-6.5648 2.33087,-3.52182 2.72761,-5.16016 2.72761,-11.26358 0,-6.1023 -0.39717,-7.74308 -2.72761,-11.26817 -9.00155,-13.61603 -28.73024,-12.6862 -36.02239,1.69776 -3.41996,6.74596 -3.5068,11.8984 -0.31606,18.75145 5.19144,11.15011 18.23863,14.9957 29.33845,8.64734 z m 67.07179,16.33045 c -10.27937,-3.83243 -17.66168,-10.61124 -22.04525,-20.24308 -3.39235,-7.45384 -3.23057,-20.89058 0.34218,-28.42034 3.6773,-7.7501 8.69361,-13.09095 16.03288,-17.07016 C 245.23661,245.64281 245.93718,245.5 256,245.5 c 10.06282,0 10.76339,0.14281 16.82601,3.42984 7.33927,3.97921 12.35558,9.32006 16.03288,17.07016 2.21216,4.66226 2.60966,6.87085 2.60966,14.5 0,7.62915 -0.3975,9.83774 -2.60966,14.5 -3.68925,7.77529 -8.71056,13.10727 -16.03288,17.02487 -5.62123,3.00748 -7.3287,3.41892 -15.32601,3.69305 -5.85863,0.20082 -10.27603,-0.16725 -12.65582,-1.0545 z m 21.84047,-16.28472 c 12.79105,-7.29446 13.691,-26.1879 1.65259,-34.69425 -7.79848,-5.51041 -16.27644,-5.6124 -24.12059,-0.29017 C 238.17135,267.496 235.5,272.73831 235.5,280.5 c 0,16.6394 16.63458,26.1763 31.18465,17.8787 z m 67.15953,16.22762 C 323.68644,310.97789 316.5719,304.57744 312.10111,295.04563 309.90309,290.3594 309.5,288.10528 309.5,280.5 c 0,-7.63464 0.39977,-9.85259 2.63517,-14.62001 3.58267,-7.64076 8.622,-12.93886 16.09649,-16.92306 5.23411,-2.78998 7.58829,-3.41007 14.26834,-3.75828 9.45083,-0.49263 14.07006,0.58842 21.46533,5.02361 C 373.65095,256.03104 381,269.09339 381,280.5 c 0,6.46555 -3.50522,16.39258 -7.76816,22 -3.94922,5.19475 -12.14892,10.82651 -18.21812,12.51266 -4.94485,1.37379 -16.82446,1.14576 -21.16954,-0.40634 z m 21.87924,-16.25034 c 5.42469,-3.09437 9.49463,-9.88104 10.04519,-16.75049 0.33551,-4.18615 -0.10997,-6.09309 -2.47393,-10.59005 -3.96778,-7.5479 -10.06631,-11.34877 -18.20922,-11.34877 -20.338,0 -28.90003,26.05068 -12.38543,37.68371 7.24363,5.10248 15.22973,5.45129 23.02339,1.0056 z m -267.265011,0.36908 c 2.177124,-1.23311 5.327124,-4.18948 7,-6.56969 C 98.168337,288.29961 98.5,287.03859 98.5,280.59083 c 0,-6.24589 -0.382059,-7.81422 -2.790022,-11.4529 -1.534512,-2.3188 -4.234512,-5.10777 -6,-6.1977 -3.270086,-2.0188 -7.51203,-3.47905 -8.163878,-2.81033 -0.538565,0.55251 -2.444755,22.10174 -2.841262,32.1201 l -0.346307,8.75 3.070735,-0.0165 c 1.688904,-0.009 4.852018,-1.02537 7.029143,-2.25849 z M 433.32734,293.25 c -0.52594,-10.94887 -2.39524,-32.65123 -2.85166,-33.10766 -0.6777,-0.67769 -4.88559,0.76058 -8.18566,2.79789 -1.76549,1.08993 -4.46549,3.8789 -6,6.1977 -2.40796,3.63868 -2.79002,5.20701 -2.79002,11.4529 0,6.44776 0.33166,7.70878 3.04159,11.56454 3.50708,4.98996 9.58132,8.80442 14.05822,8.82818 L 433.69963,301 Z M 419.68329,206.5 417.68195,199 h -25.80202 c -25.25527,0 -25.84523,-0.0464 -27.84097,-2.18856 -2.55917,-2.74694 -2.61272,-6.88072 -0.1289,-9.95066 1.89583,-2.34319 2.08538,-2.36302 25.44129,-2.66175 l 23.53122,-0.30097 -2.62596,-7.44903 L 407.63065,169 H 256 104.36935 l -2.64393,7.5 -2.643929,7.5 H 211.99369 c 84.16138,0 113.56686,0.29828 115.48323,1.17144 4.04949,1.84507 5.01931,8.44403 1.77515,12.07856 -1.47079,1.64777 -8.38782,1.75 -118.40706,1.75 C 146.58026,199 94,199.33893 94,199.75318 c 0,0.41425 -0.868237,3.78925 -1.929416,7.5 L 90.141167,214 H 255.9129 421.68463 Z M 401,152.71597 C 401,150.38105 381.6122,112.691 374.99608,102.16413 368.0385,91.093961 351.59904,68.710719 348.16433,65.631206 344.99009,62.785229 340.32077,64.203005 330.26389,71.066421 311.19878,84.077599 294.8149,84.352339 275.9649,71.976955 266.67105,65.875366 262.14727,64.087786 256,64.087786 c -6.14727,0 -10.67105,1.78758 -19.9649,7.889169 C 217.67075,84.033496 200.30567,84.017118 183.09,71.927021 175.34674,66.489145 170.31184,64 167.05566,64 c -5.43581,0 -31.2392,37.66325 -45.92403,67.03183 C 115.55923,142.17621 111,151.90311 111,152.64717 111,153.77806 134.78849,154 256,154 c 117.38288,0 145,-0.24456 145,-1.28403 z M 220.33613,64.338547 c 1.74013,-0.893055 5.86387,-3.508483 9.16387,-5.812061 9.89435,-6.906789 15.61132,-8.87623 26,-8.956739 10.58535,-0.08203 15.48991,1.470717 26,8.231421 10.2418,6.588121 14.21634,8.151931 20.78212,8.17687 7.05961,0.02681 10.85276,-1.489805 21.32993,-8.528366 C 328.07367,54.452352 332.27367,52 332.94538,52 c 1.99108,0 0.88144,-1.430109 -5.25662,-6.774781 C 286.13613,9.0435745 240.33236,5.4550645 197.55133,35.029564 c -7.34882,5.080239 -18.76667,14.534897 -19.35638,16.028235 -0.16777,0.424866 0.73223,1.085297 2,1.467624 1.26778,0.382328 5.297,2.855302 8.95382,5.495498 7.83766,5.658729 10.31448,7.057457 14.35123,8.104537 4.19648,1.088512 13.06802,0.146926 16.83613,-1.786911 z"
         id="path1366" />
    </g>
  </g>
</svg>
