<?xml version="1.0" encoding="UTF-8" standalone="no"?>
<!-- Created with Inkscape (http://www.inkscape.org/) -->

<svg
   version="1.1"
   id="svg1"
   width="512"
   height="512"
   viewBox="0 0 512 512"
   sodipodi:docname="cpu.png"
   xmlns:inkscape="http://www.inkscape.org/namespaces/inkscape"
   xmlns:sodipodi="http://sodipodi.sourceforge.net/DTD/sodipodi-0.dtd"
   xmlns="http://www.w3.org/2000/svg"
   xmlns:svg="http://www.w3.org/2000/svg">
  <defs
     id="defs1" />
  <sodipodi:namedview
     id="namedview1"
     pagecolor="#ffffff"
     bordercolor="#000000"
     borderopacity="0.25"
     inkscape:showpageshadow="2"
     inkscape:pageopacity="0.0"
     inkscape:pagecheckerboard="0"
     inkscape:deskcolor="#d1d1d1">
    <inkscape:page
       x="0"
       y="0"
       width="512"
       height="512"
       id="page2"
       margin="0"
       bleed="0" />
  </sodipodi:namedview>
  <g
     inkscape:groupmode="layer"
     inkscape:label="Image"
     id="g1">
    <g
       id="g2"
       transform="matrix(1.0178926,0,0,1.0051968,-4.5805169,-1.5077952)">
      <path
         style="fill:#facf08"
         d="m 170.07258,320.36514 c -2.74937,-3.49526 -2.61773,-6.9109 0.38197,-9.91059 4.44648,-4.44649 10.91348,-2.19623 12.15418,4.22916 0.49588,2.56806 0.11849,3.67998 -1.95153,5.75 -3.45265,3.45265 -7.83717,3.42424 -10.58462,-0.0686 z m 112.27022,-3.93143 c -2.07002,-2.07002 -2.44741,-3.18194 -1.95153,-5.75 1.2407,-6.42539 7.7077,-8.67565 12.15418,-4.22916 2.9997,2.99969 3.13134,6.41533 0.38197,9.91059 -2.74745,3.49281 -7.13197,3.52122 -10.58462,0.0686 z M 239.1138,300.25 c -1.15928,-0.9625 -2.38442,-3.18267 -2.72253,-4.93371 -0.49588,-2.56806 -0.11849,-3.67998 1.95153,-5.75 3.45265,-3.45265 7.83717,-3.42424 10.58462,0.0686 2.74937,3.49526 2.61773,6.9109 -0.38197,9.91059 -2.88396,2.88397 -6.48287,3.15281 -9.43165,0.70455 z m 73,-27 c -1.15928,-0.9625 -2.38442,-3.18267 -2.72253,-4.93371 -1.28936,-6.67738 7.91751,-11.0931 12.64833,-6.06629 4.04258,4.29551 0.36929,12.75 -5.5396,12.75 -1.25314,0 -3.22693,-0.7875 -4.3862,-1.75 z m -79.65925,-32.70455 c -2.9997,-2.99969 -3.13134,-6.41533 -0.38197,-9.91059 2.74745,-3.49281 7.13197,-3.52122 10.58462,-0.0686 2.07002,2.07002 2.44741,3.18194 1.95153,5.75 -1.2407,6.42539 -7.7077,8.67565 -12.15418,4.22916 z M 333.3428,211.43371 c -2.07002,-2.07002 -2.44741,-3.18194 -1.95153,-5.75 1.2407,-6.42539 7.7077,-8.67565 12.15418,-4.22916 2.9997,2.99969 3.13134,6.41533 0.38197,9.91059 -2.74745,3.49281 -7.13197,3.52122 -10.58462,0.0686 z M 179.63486,189.92742 c -6.3335,-4.98193 0.56234,-15.43675 7.95896,-12.06663 2.85705,1.30176 4.73336,5.49453 3.81337,8.52129 -1.73264,5.70035 -7.01158,7.29015 -11.77233,3.54534 z m 107.43772,-4.56228 C 285.93266,183.91597 285,181.64551 285,180.31969 285,177.13985 289.24183,173 292.5,173 c 3.33411,0 7.5,4.16589 7.5,7.5 0,1.425 -1.10455,3.69545 -2.45455,5.04545 -3.34023,3.34023 -7.76351,3.26408 -10.47287,-0.18031 z"
         id="path8" />
      <path
         style="fill:#d16142"
         d="m 342.25,430.25379 c 5.9125,-0.1768 15.5875,-0.1768 21.5,0 5.9125,0.17679 1.075,0.32145 -10.75,0.32145 -11.825,0 -16.6625,-0.14466 -10.75,-0.32145 z M 88.872445,424.25 c -1.243871,-1.58606 -1.208501,-1.62143 0.377555,-0.37756 0.9625,0.75485 1.75,1.54235 1.75,1.75 0,0.82304 -0.821186,0.29331 -2.127555,-1.37244 z M 421,425.62244 c 0,-0.20765 0.7875,-0.99515 1.75,-1.75 1.58606,-1.24387 1.62143,-1.2085 0.37756,0.37756 C 421.82119,425.91575 421,426.44548 421,425.62244 Z M 134.8125,390.31689 c 0.72187,-0.28887 1.58437,-0.25335 1.91667,0.0789 0.33229,0.33229 -0.25834,0.56864 -1.3125,0.52522 -1.16495,-0.048 -1.4019,-0.28494 -0.60417,-0.60416 z m 241,0 c 0.72187,-0.28887 1.58438,-0.25335 1.91667,0.0789 0.33229,0.33229 -0.25834,0.56864 -1.3125,0.52522 -1.16495,-0.048 -1.4019,-0.28494 -0.60417,-0.60416 z M 123.07895,378.41667 c 0.048,-1.16495 0.28494,-1.4019 0.60416,-0.60417 0.28887,0.72187 0.25335,1.58438 -0.0789,1.91667 -0.3323,0.33229 -0.56864,-0.25834 -0.52522,-1.3125 z m 265,0 c 0.048,-1.16495 0.28494,-1.4019 0.60416,-0.60417 0.28887,0.72187 0.25335,1.58438 -0.0789,1.91667 -0.33229,0.33229 -0.56864,-0.25834 -0.52522,-1.3125 z m -85.626,-41.51407 c -2.17412,-2.25357 -4.85295,-4.47504 -5.95295,-4.93661 -1.38238,-0.58006 -1.52518,-0.85879 -0.46241,-0.9026 0.84568,-0.0349 3.75376,2.18661 6.46241,4.93661 2.70865,2.75 4.69556,5 4.41536,5 -0.28021,0 -2.28829,-1.84383 -4.46241,-4.0974 z M 159.40499,330.75 157.5,328.5 l 2.25,1.90499 c 2.11444,1.79022 2.70524,2.59501 1.90499,2.59501 -0.18976,0 -1.20226,-1.0125 -2.25,-2.25 z m 112.0321,-5 -2.93709,-3.25 3.25,2.93709 c 3.02946,2.73778 3.70965,3.56291 2.93709,3.56291 -0.1721,0 -1.6346,-1.4625 -3.25,-3.25 z m 39.15208,-0.65868 c -2.09919,-2.14977 -3.57605,-4.51227 -3.28189,-5.25 0.41907,-1.05102 0.55191,-1.0258 0.61377,0.11652 0.0434,0.80181 1.74528,3.16431 3.7819,5.25 2.03662,2.08569 3.47795,3.79216 3.20295,3.79216 -0.275,0 -2.21753,-1.75891 -4.31673,-3.90868 z m -114.51022,-5.67465 c 0.048,-1.16495 0.28494,-1.4019 0.60416,-0.60417 0.28887,0.72187 0.25335,1.58438 -0.0789,1.91667 -0.3323,0.33229 -0.56864,-0.25834 -0.52522,-1.3125 z m -42,-7 c 0.048,-1.16495 0.28494,-1.4019 0.60416,-0.60417 0.28887,0.72187 0.25335,1.58438 -0.0789,1.91667 -0.3323,0.33229 -0.56864,-0.25834 -0.52522,-1.3125 z m 42,0 c 0.048,-1.16495 0.28494,-1.4019 0.60416,-0.60417 0.28887,0.72187 0.25335,1.58438 -0.0789,1.91667 -0.3323,0.33229 -0.56864,-0.25834 -0.52522,-1.3125 z M 221,311.62244 c 0,-0.20765 0.7875,-0.99515 1.75,-1.75 1.58606,-1.24387 1.62143,-1.2085 0.37756,0.37756 C 221.82119,311.91575 221,312.44548 221,311.62244 Z M 187.87244,298.25 c -1.24387,-1.58606 -1.2085,-1.62143 0.37756,-0.37756 0.9625,0.75485 1.75,1.54235 1.75,1.75 0,0.82304 -0.82119,0.29331 -2.12756,-1.37244 z M 272,296.5 c 1.29175,-1.375 2.57363,-2.5 2.84863,-2.5 0.275,0 -0.55688,1.125 -1.84863,2.5 -1.29175,1.375 -2.57363,2.5 -2.84863,2.5 -0.275,0 0.55688,-1.125 1.84863,-2.5 z m 29.43709,-0.75 -2.93709,-3.25 3.25,2.93709 c 3.02946,2.73778 3.70965,3.56291 2.93709,3.56291 -0.1721,0 -1.6346,-1.4625 -3.25,-3.25 z m -37.2792,0.25 c 0,-1.375 0.22698,-1.9375 0.50439,-1.25 0.27741,0.6875 0.27741,1.8125 0,2.5 -0.27741,0.6875 -0.50439,0.125 -0.50439,-1.25 z m 67.2792,-3.25 -2.93709,-3.25 3.25,2.93709 c 1.7875,1.6154 3.25,3.0779 3.25,3.25 0,0.77256 -0.82513,0.0924 -3.56291,-2.93709 z M 264.15789,291 c 0,-1.375 0.22698,-1.9375 0.50439,-1.25 0.27741,0.6875 0.27741,1.8125 0,2.5 -0.27741,0.6875 -0.50439,0.125 -0.50439,-1.25 z M 176,251.5 c 5.20327,-5.225 9.6855,-9.5 9.9605,-9.5 0.275,0 -3.75723,4.275 -8.9605,9.5 -5.20327,5.225 -9.6855,9.5 -9.9605,9.5 -0.275,0 3.75723,-4.275 8.9605,-9.5 z m 56.8125,4.81689 c 0.72187,-0.28887 1.58437,-0.25335 1.91667,0.0789 0.33229,0.33229 -0.25834,0.56864 -1.3125,0.52522 -1.16495,-0.048 -1.4019,-0.28494 -0.60417,-0.60416 z m 7,0 c 0.72187,-0.28887 1.58437,-0.25335 1.91667,0.0789 0.33229,0.33229 -0.25834,0.56864 -1.3125,0.52522 -1.16495,-0.048 -1.4019,-0.28494 -0.60417,-0.60416 z M 331.92431,252.25 329.5,249.5 l 2.75,2.42431 c 2.57029,2.26589 3.20859,3.07569 2.42431,3.07569 -0.17912,0 -1.41662,-1.2375 -2.75,-2.75 z M 299,253.62244 c 0,-0.20765 0.7875,-0.99515 1.75,-1.75 1.58606,-1.24387 1.62143,-1.2085 0.37756,0.37756 C 299.82119,253.91575 299,254.44548 299,253.62244 Z m -46,-4 c 0,-0.20765 0.7875,-0.99515 1.75,-1.75 1.58606,-1.24387 1.62143,-1.2085 0.37756,0.37756 C 253.82119,249.91575 253,250.44548 253,249.62244 Z M 169,238.5 c 5.20327,-5.225 9.6855,-9.5 9.9605,-9.5 0.275,0 -3.75723,4.275 -8.9605,9.5 -5.20327,5.225 -9.6855,9.5 -9.9605,9.5 -0.275,0 3.75723,-4.275 8.9605,-9.5 z m 150.8125,7.81689 c 0.72187,-0.28887 1.58438,-0.25335 1.91667,0.0789 0.33229,0.33229 -0.25834,0.56864 -1.3125,0.52522 -1.16495,-0.048 -1.4019,-0.28494 -0.60417,-0.60416 z M 353.5,222 c 0.99549,-1.1 2.03498,-2 2.30998,-2 0.275,0 -0.31449,0.9 -1.30998,2 -0.99549,1.1 -2.03498,2 -2.30998,2 -0.275,0 0.31449,-0.9 1.30998,-2 z m -132,-2 c 0.99549,-1.1 2.03498,-2 2.30998,-2 0.275,0 -0.31449,0.9 -1.30998,2 -0.99549,1.1 -2.03498,2 -2.30998,2 -0.275,0 0.31449,-0.9 1.30998,-2 z M 167,214.62244 c 0,-0.20765 0.7875,-0.99515 1.75,-1.75 1.58606,-1.24387 1.62143,-1.2085 0.37756,0.37756 C 167.82119,214.91575 167,215.44548 167,214.62244 Z m 72.8125,-0.30555 c 0.72187,-0.28887 1.58437,-0.25335 1.91667,0.0789 0.33229,0.33229 -0.25834,0.56864 -1.3125,0.52522 -1.16495,-0.048 -1.4019,-0.28494 -0.60417,-0.60416 z m 119.26645,-3.90022 c 0.048,-1.16495 0.28494,-1.4019 0.60416,-0.60417 0.28887,0.72187 0.25335,1.58437 -0.0789,1.91667 -0.33229,0.33229 -0.56864,-0.25834 -0.52522,-1.3125 z m -42,-1 c 0.048,-1.16495 0.28494,-1.4019 0.60416,-0.60417 0.28887,0.72187 0.25335,1.58437 -0.0789,1.91667 -0.33229,0.33229 -0.56864,-0.25834 -0.52522,-1.3125 z M 174.5,207 c 0.99549,-1.1 2.03498,-2 2.30998,-2 0.275,0 -0.31449,0.9 -1.30998,2 -0.99549,1.1 -2.03498,2 -2.30998,2 -0.275,0 0.31449,-0.9 1.30998,-2 z m 142.57895,-3.58333 c 0.048,-1.16495 0.28494,-1.4019 0.60416,-0.60417 0.28887,0.72187 0.25335,1.58437 -0.0789,1.91667 -0.33229,0.33229 -0.56864,-0.25834 -0.52522,-1.3125 z m -154.50637,-4.5111 c 1.61008,-1.97694 3.12934,-3.42502 3.37614,-3.21795 0.24679,0.20706 -1.07055,1.82456 -2.92742,3.59443 L 159.64516,202.5 Z M 197,201.68709 c 0,-0.1721 1.4625,-1.6346 3.25,-3.25 l 3.25,-2.93709 -2.93709,3.25 C 197.82513,201.77946 197,202.45965 197,201.68709 Z M 276.87244,196.25 c -1.24387,-1.58606 -1.2085,-1.62143 0.37756,-0.37756 1.66575,1.30637 2.19548,2.12756 1.37244,2.12756 -0.20765,0 -0.99515,-0.7875 -1.75,-1.75 z M 323,191.5 c 1.29175,-1.375 2.57363,-2.5 2.84863,-2.5 0.275,0 -0.55688,1.125 -1.84863,2.5 -1.29175,1.375 -2.57363,2.5 -2.84863,2.5 -0.275,0 0.55688,-1.125 1.84863,-2.5 z m -9.92105,-8.08333 c 0.048,-1.16495 0.28494,-1.4019 0.60416,-0.60417 0.28887,0.72187 0.25335,1.58437 -0.0789,1.91667 -0.33229,0.33229 -0.56864,-0.25834 -0.52522,-1.3125 z M 313.15789,177 c 0,-1.375 0.22698,-1.9375 0.50439,-1.25 0.27741,0.6875 0.27741,1.8125 0,2.5 -0.27741,0.6875 -0.50439,0.125 -0.50439,-1.25 z M 167,171.68709 c 0,-0.1721 1.4625,-1.6346 3.25,-3.25 l 3.25,-2.93709 -2.93709,3.25 C 167.82513,171.77946 167,172.45965 167,171.68709 Z M 198.92431,169.25 196.5,166.5 l 2.75,2.42431 c 2.57029,2.26589 3.20859,3.07569 2.42431,3.07569 -0.17912,0 -1.41662,-1.2375 -2.75,-2.75 z M 276.5,165 c 0.99549,-1.1 2.03498,-2 2.30998,-2 0.275,0 -0.31449,0.9 -1.30998,2 -0.99549,1.1 -2.03498,2 -2.30998,2 -0.275,0 0.31449,-0.9 1.30998,-2 z m 111.57895,-31.58333 c 0.048,-1.16495 0.28494,-1.4019 0.60416,-0.60417 0.28887,0.72187 0.25335,1.58437 -0.0789,1.91667 -0.33229,0.33229 -0.56864,-0.25834 -0.52522,-1.3125 z M 134.8125,121.31689 c 0.72187,-0.28887 1.58437,-0.25335 1.91667,0.0789 0.33229,0.3323 -0.25834,0.56864 -1.3125,0.52522 -1.16495,-0.048 -1.4019,-0.28494 -0.60417,-0.60416 z m 241,0 c 0.72187,-0.28887 1.58438,-0.25335 1.91667,0.0789 0.33229,0.3323 -0.25834,0.56864 -1.3125,0.52522 -1.16495,-0.048 -1.4019,-0.28494 -0.60417,-0.60416 z"
         id="path7" />
      <path
         style="fill:#a4615c"
         d="m 98.8125,444.31689 c 0.721875,-0.28887 1.58437,-0.25335 1.91667,0.0789 0.33229,0.33229 -0.25834,0.56864 -1.312503,0.52522 -1.164943,-0.048 -1.4019,-0.28494 -0.604167,-0.60416 z m 313,0 c 0.72187,-0.28887 1.58438,-0.25335 1.91667,0.0789 0.33229,0.33229 -0.25834,0.56864 -1.3125,0.52522 -1.16495,-0.048 -1.4019,-0.28494 -0.60417,-0.60416 z M 78.872445,434.25 c -1.243871,-1.58606 -1.208501,-1.62143 0.377555,-0.37756 0.9625,0.75485 1.75,1.54235 1.75,1.75 0,0.82304 -0.821186,0.29331 -2.127555,-1.37244 z M 431,435.62244 c 0,-0.20765 0.7875,-0.99515 1.75,-1.75 1.58606,-1.24387 1.62143,-1.2085 0.37756,0.37756 C 431.82119,435.91575 431,436.44548 431,435.62244 Z M 69.078947,414.41667 c 0.04798,-1.16495 0.284941,-1.4019 0.604167,-0.60417 0.288871,0.72187 0.253344,1.58438 -0.07895,1.91667 -0.332292,0.33229 -0.568641,-0.25834 -0.52522,-1.3125 z m 373.000003,0 c 0.048,-1.16495 0.28494,-1.4019 0.60416,-0.60417 0.28887,0.72187 0.25335,1.58438 -0.0789,1.91667 -0.33229,0.33229 -0.56864,-0.25834 -0.52522,-1.3125 z M 69.078947,96.416667 c 0.04798,-1.164943 0.284941,-1.4019 0.604167,-0.604167 0.288871,0.721875 0.253344,1.584375 -0.07895,1.916667 -0.332292,0.332291 -0.568641,-0.258334 -0.52522,-1.3125 z m 373.000003,0 c 0.048,-1.164943 0.28494,-1.4019 0.60416,-0.604167 0.28887,0.721875 0.25335,1.584375 -0.0789,1.916667 -0.33229,0.332291 -0.56864,-0.258334 -0.52522,-1.3125 z M 98.8125,66.316886 c 0.721875,-0.288871 1.58437,-0.253344 1.91667,0.07895 0.33229,0.332292 -0.25834,0.568641 -1.312503,0.52522 -1.164943,-0.04798 -1.4019,-0.284941 -0.604167,-0.604167 z m 313,0 c 0.72187,-0.288871 1.58438,-0.253344 1.91667,0.07895 0.33229,0.332292 -0.25834,0.568641 -1.3125,0.52522 -1.16495,-0.04798 -1.4019,-0.284941 -0.60417,-0.604167 z"
         id="path6" />
      <path
         style="fill:#fd4400"
         d="M 98.557825,429.5433 C 91.077029,426.81117 85.980993,421.35685 83.985603,413.94653 83.320294,411.47577 83.06499,356.62482 83.237729,253.26896 L 83.5,96.342776 86.526436,91.447823 c 1.875759,-3.03385 4.88761,-6.045628 7.92158,-7.921387 L 99.34316,80.5 H 256 412.65684 l 4.89514,3.026436 c 3.03415,1.87587 6.04571,4.887431 7.92158,7.92158 L 428.5,96.34316 v 159.07842 c 0,153.38371 -0.0668,159.20371 -1.86697,162.57842 -2.63057,4.93149 -5.50721,7.8618 -10.13303,10.32202 l -4,2.12739 -155,0.26682 c -132.87444,0.22873 -155.56273,0.0613 -158.942175,-1.17293 z M 383.57186,403.3241 c 6.70223,-2.2792 15.47304,-11.05001 17.75224,-17.75224 C 402.85664,381.06528 403,369.98163 403,256 c 0,-140.87481 0.64483,-129.8508 -8.15879,-139.48337 -3.5744,-3.91095 -6.46811,-5.98163 -10.43142,-7.4645 C 378.9879,107.02354 377.51623,107 256.14063,107 115.90911,107 127.60726,106.24453 117.9259,115.9259 108.23874,125.61305 109,113.66666 109,256 c 0,142.33695 -0.76219,130.38167 8.9309,140.085 9.49296,9.503 -2.29447,8.74629 137.64096,8.83605 112.63957,0.0723 123.4896,-0.0631 128,-1.59695 z M 133.5,389.49706 c -4.82431,-1.70678 -8.04629,-5.20187 -9.44787,-10.24871 -0.66472,-2.39351 -1.04299,-24.26065 -1.04655,-60.49835 L 123,262 h 21.64497 21.64497 l 10.16206,-10 10.16205,-10 h 15.07166 15.07165 l 1.18826,2.86871 C 220.61856,251.32175 229.35092,257 236.60186,257 c 12.75572,0 22.32434,-9.31459 22.37618,-21.78212 0.0289,-6.95117 -1.80856,-11.061 -6.88978,-15.41034 -10.57433,-9.05123 -26.92006,-7.00171 -33.30322,4.17576 l -2.28504,4.0013 -18.39497,0.008 -18.39497,0.008 -10.16206,10 -10.16205,10 H 141.19297 123 v -16 -16 h 21.55986 21.55986 l 5.46962,-5.17294 c 5.41439,-5.1207 5.52864,-5.17052 11.31517,-4.93436 22.61072,0.9228 31.80117,-27.13256 12.97038,-39.59419 -8.07057,-5.34086 -20.13227,-4.04483 -26.56282,2.85417 -5.43338,5.82919 -7.74829,16.42892 -5.19043,23.76641 1.02011,2.92629 0.86739,3.48292 -1.68709,6.14923 L 159.62582,202 H 141.31291 123 v -33.78811 c 0,-33.05759 0.0486,-33.88408 2.25,-38.22712 1.33248,-2.62884 3.67726,-5.26392 5.75,-6.46189 3.41644,-1.97459 5.29651,-2.02943 78.75,-2.29732 l 75.25,-0.27443 -0.0543,19.27443 -0.0543,19.27444 -4.62983,3 c -5.67481,3.67712 -8.5185,8.90377 -9.08187,16.69232 -0.34815,4.81307 0.0422,6.74105 2.29896,11.35362 3.58622,7.32995 8.53912,10.68306 16.64625,11.26948 13.76753,0.99585 23.84921,-8.33741 23.8695,-22.09754 0.0109,-7.35604 -5.62365,-16.07902 -12.12571,-18.77226 L 299,159.75736 V 140.37868 121 h 16.5 16.5 l -0.008,32.25 -0.008,32.25 -3.94219,2.25102 c -12.00071,6.85249 -14.63656,23.05117 -5.41229,33.26133 6.93032,7.67103 19.75615,9.30665 28.35528,3.61601 12.67689,-8.38917 11.42637,-30.19286 -2.13384,-37.20512 L 346,185.94864 v -32.56218 -32.56218 l 15.75,0.33786 c 17.74705,0.3807 20.90368,1.38629 24.71462,7.87324 1.99191,3.39062 2.04124,5.08256 2.30967,79.21462 L 389.04858,284 H 366.22724 343.4059 l -3.59317,-3.75 c -2.80116,-2.92341 -3.41244,-4.19085 -2.77324,-5.75 1.50255,-3.66502 0.99228,-12.83332 -0.95261,-17.11609 -6.66252,-14.67134 -31.10379,-14.9719 -38.75924,-0.47663 -4.37462,8.28316 -2.45393,19.30098 4.50712,25.85455 5.73663,5.40083 15.20504,7.69433 21.6496,5.24411 2.38181,-0.90556 3.09208,-0.50495 7.97848,4.5 L 336.82675,298 H 362.91338 389 v 15.5 15.5 h -36.70784 -36.70783 l -3.72266,-3.63508 c -3.71583,-3.62841 -3.72164,-3.64724 -3.16625,-10.27192 1.27417,-15.19829 -8.88519,-26.07127 -23.24729,-24.88026 -18.26071,1.51432 -26.34909,25.43692 -12.53147,37.06368 5.02321,4.22675 11.24612,6.07727 18.28901,5.43865 l 6.19284,-0.56155 5.85774,5.42324 L 309.114,343 h 40.02242 40.02242 l -0.32942,18.25 c -0.37023,20.51092 -1.17111,23.28222 -7.8648,27.21462 -3.39062,1.99191 -5.08256,2.04124 -79.21462,2.30967 L 226,391.04858 v -30.5559 -30.5559 l 5.51767,-7.33089 5.51766,-7.33088 4.05326,0.74119 c 10.3737,1.89696 19.7325,-4.5053 22.81502,-15.60753 4.16471,-14.99993 -4.82877,-27.36475 -19.90361,-27.36475 -13.17033,0 -22.92524,10.20805 -21.74376,22.75378 0.24356,2.58627 1.01748,6.05427 1.71983,7.70669 1.23389,2.90299 1.05336,3.30089 -5.34954,11.79033 L 212,324.08068 V 357.54034 391 h -15 -15 v -27.37868 -27.37868 l 2.86871,-1.18826 C 191.32175,332.38144 197,323.64908 197,316.39814 c 0,-12.70818 -9.31856,-22.3238 -21.6849,-22.37618 -6.68598,-0.0283 -9.94826,1.25494 -14.54592,5.7218 -10.09029,9.80323 -8.40914,27.83345 3.21412,34.4712 l 4.0013,2.28504 0.008,27.25 0.008,27.25 -15.25,-0.0439 c -10.49745,-0.0302 -16.49657,-0.48492 -19.25,-1.45905 z"
         id="path5" />
      <path
         style="fill:#a24e38"
         d="m 126.87244,386.25 c -1.24387,-1.58606 -1.2085,-1.62143 0.37756,-0.37756 0.9625,0.75485 1.75,1.54235 1.75,1.75 0,0.82304 -0.82119,0.29331 -2.12756,-1.37244 z M 383,387.62244 c 0,-0.20765 0.7875,-0.99515 1.75,-1.75 1.58606,-1.24387 1.62143,-1.2085 0.37756,0.37756 C 383.82119,387.91575 383,388.44548 383,387.62244 Z M 154.07895,317.41667 c 0.048,-1.16495 0.28494,-1.4019 0.60416,-0.60417 0.28887,0.72187 0.25335,1.58438 -0.0789,1.91667 -0.3323,0.33229 -0.56864,-0.25834 -0.52522,-1.3125 z m 161.19008,-71.10966 c 0.97297,-0.25354 2.32297,-0.23687 3,0.0371 0.67703,0.27393 -0.11903,0.48137 -1.76903,0.46099 -1.65,-0.0204 -2.20394,-0.2445 -1.23097,-0.49804 z M 234.8125,214.31689 c 0.72187,-0.28887 1.58437,-0.25335 1.91667,0.0789 0.33229,0.33229 -0.25834,0.56864 -1.3125,0.52522 -1.16495,-0.048 -1.4019,-0.28494 -0.60417,-0.60416 z M 170,211.62244 c 0,-0.20765 0.7875,-0.99515 1.75,-1.75 1.58606,-1.24387 1.62143,-1.2085 0.37756,0.37756 C 170.82119,211.91575 170,212.44548 170,211.62244 Z m 147.07895,-5.20577 c 0.048,-1.16495 0.28494,-1.4019 0.60416,-0.60417 0.28887,0.72187 0.25335,1.58437 -0.0789,1.91667 -0.33229,0.33229 -0.56864,-0.25834 -0.52522,-1.3125 z m -4,-26 c 0.048,-1.16495 0.28494,-1.4019 0.60416,-0.60417 0.28887,0.72187 0.25335,1.58437 -0.0789,1.91667 -0.33229,0.33229 -0.56864,-0.25834 -0.52522,-1.3125 z M 126,126.62244 c 0,-0.20765 0.7875,-0.99515 1.75,-1.75 1.58606,-1.24387 1.62143,-1.2085 0.37756,0.37756 C 126.82119,126.91575 126,127.44548 126,126.62244 Z M 383.87244,125.25 c -1.24387,-1.58606 -1.2085,-1.62143 0.37756,-0.37756 1.66575,1.30637 2.19548,2.12756 1.37244,2.12756 -0.20765,0 -0.99515,-0.7875 -1.75,-1.75 z m 38,-39 C 420.62857,84.663944 420.66394,84.628574 422.25,85.872445 423.91575,87.178814 424.44548,88 423.62244,88 c -0.20765,0 -0.99515,-0.7875 -1.75,-1.75 z"
         id="path4" />
      <path
         style="fill:#8b352e"
         d="M 117.40499,395.75 115.5,393.5 l 2.25,1.90499 c 2.11444,1.79022 2.70524,2.59501 1.90499,2.59501 -0.18976,0 -1.20226,-1.0125 -2.25,-2.25 z M 393.5,396 c 0.99549,-1.1 2.03498,-2 2.30998,-2 0.275,0 -0.31449,0.9 -1.30998,2 -0.99549,1.1 -2.03498,2 -2.30998,2 -0.275,0 0.31449,-0.9 1.30998,-2 z M 189,331.62244 c 0,-0.20765 0.7875,-0.99515 1.75,-1.75 1.58606,-1.24387 1.62143,-1.2085 0.37756,0.37756 C 189.82119,331.91575 189,332.44548 189,331.62244 Z M 160.5,300 c 0.99549,-1.1 2.03498,-2 2.30998,-2 0.275,0 -0.31449,0.9 -1.30998,2 -0.99549,1.1 -2.03498,2 -2.30998,2 -0.275,0 0.31449,-0.9 1.30998,-2 z m 61.65789,-6 c 0,-1.375 0.22698,-1.9375 0.50439,-1.25 0.27741,0.6875 0.27741,1.8125 0,2.5 -0.27741,0.6875 -0.50439,0.125 -0.50439,-1.25 z M 315.75,288.33772 c 0.6875,-0.27741 1.8125,-0.27741 2.5,0 0.6875,0.27741 0.125,0.50439 -1.25,0.50439 -1.375,0 -1.9375,-0.22698 -1.25,-0.50439 z M 326.87244,287.25 c -1.24387,-1.58606 -1.2085,-1.62143 0.37756,-0.37756 1.66575,1.30637 2.19548,2.12756 1.37244,2.12756 -0.20765,0 -0.99515,-0.7875 -1.75,-1.75 z M 354.25,284.25323 c 6.4625,-0.17418 17.0375,-0.17418 23.5,0 6.4625,0.17419 1.175,0.3167 -11.75,0.3167 -12.925,0 -18.2125,-0.14251 -11.75,-0.3167 z M 336.87244,278.25 c -1.24387,-1.58606 -1.2085,-1.62143 0.37756,-0.37756 0.9625,0.75485 1.75,1.54235 1.75,1.75 0,0.82304 -0.82119,0.29331 -2.12756,-1.37244 z m -115,-28 c -1.24387,-1.58606 -1.2085,-1.62143 0.37756,-0.37756 0.9625,0.75485 1.75,1.54235 1.75,1.75 0,0.82304 -0.82119,0.29331 -2.12756,-1.37244 z m 30.53255,-29.5 -1.90499,-2.25 2.25,1.90499 c 2.11444,1.79022 2.70524,2.59501 1.90499,2.59501 -0.18976,0 -1.20226,-1.0125 -2.25,-2.25 z m 70.46745,0.5 c -1.24387,-1.58606 -1.2085,-1.62143 0.37756,-0.37756 1.66575,1.30637 2.19548,2.12756 1.37244,2.12756 -0.20765,0 -0.99515,-0.7875 -1.75,-1.75 z M 306,196.62244 c 0,-0.20765 0.7875,-0.99515 1.75,-1.75 1.58606,-1.24387 1.62143,-1.2085 0.37756,0.37756 C 306.82119,196.91575 306,197.44548 306,196.62244 Z M 352.87244,191.25 c -1.24387,-1.58606 -1.2085,-1.62143 0.37756,-0.37756 1.66575,1.30637 2.19548,2.12756 1.37244,2.12756 -0.20765,0 -0.99515,-0.7875 -1.75,-1.75 z M 163.19495,185.5 c 0.0204,-1.65 0.2445,-2.20394 0.49804,-1.23097 0.25354,0.97297 0.23687,2.32297 -0.0371,3 -0.27393,0.67703 -0.48137,-0.11903 -0.46099,-1.76903 z m 107.884,-5.08333 c 0.048,-1.16495 0.28494,-1.4019 0.60416,-0.60417 0.28887,0.72187 0.25335,1.58437 -0.0789,1.91667 -0.33229,0.33229 -0.56864,-0.25834 -0.52522,-1.3125 z M 117.5,116 c 0.99549,-1.1 2.03498,-2 2.30998,-2 0.275,0 -0.31449,0.9 -1.30998,2 -0.99549,1.1 -2.03498,2 -2.30998,2 -0.275,0 0.31449,-0.9 1.30998,-2 z m 275.90499,-0.25 -1.90499,-2.25 2.25,1.90499 c 2.11444,1.79022 2.70524,2.59501 1.90499,2.59501 -0.18976,0 -1.20226,-1.0125 -2.25,-2.25 z"
         id="path3" />
      <path
         style="fill:#51040c"
         d="m 127.91353,509.39743 c -1.13695,-1.36865 -1.47024,-7.80853 -1.70337,-32.91298 l -0.28984,-31.21139 -14.21016,-0.54372 C 102.34804,444.37113 95.964749,443.63145 93,442.56127 83.45678,439.11645 74.960638,430.56184 71.348735,420.76098 70.296382,417.90544 69.605903,411.46996 69.255354,401.25 L 68.732272,386 39.116136,385.98526 C 4.7754113,385.96816 4.5,385.91259 4.5,379 c 0,-6.91543 0.2623676,-6.96817 34.75,-6.98526 L 69,372 V 348 324 L 39.25,323.9853 C 4.7623676,323.96817 4.5,323.91543 4.5,317 c 0,-6.91543 0.2623676,-6.96817 34.75,-6.98526 L 69,310 V 286.5 263 L 39.25,262.9853 C 4.7623676,262.96817 4.5,262.91543 4.5,256 c 0,-6.91543 0.2623676,-6.96817 34.75,-6.98526 L 69,249 V 225 201 L 39.25,200.9853 C 4.7623676,200.96817 4.5,200.91543 4.5,194 c 0,-6.91543 0.2623676,-6.96817 34.75,-6.98526 L 69,187 V 163.5 140 L 39.25,139.9853 C 4.7623676,139.96817 4.5,139.91543 4.5,133 c 0,-6.91263 0.2752159,-6.96816 34.618141,-6.98526 L 68.736281,126 69.192387,110.17416 C 69.626182,95.12241 69.796225,94.034086 72.668795,87.924157 76.500852,79.773408 82.75409,73.509968 90.868349,69.694911 96.784386,66.913385 98.258156,66.666045 111.61835,66.21248 L 126,65.724237 126.01474,36.112119 C 126.03184,1.7758026 126.0875,1.5 133,1.5 c 6.91543,0 6.96817,0.2623676 6.98526,34.75 L 140,66 h 23.5 23.5 l 0.0147,-29.75 C 187.03183,1.7623676 187.08457,1.5 194,1.5 c 6.91543,0 6.96817,0.2623676 6.98526,34.75 L 201,66 h 24 24 l 0.0147,-29.75 C 249.03183,1.7623676 249.08457,1.5 256,1.5 c 6.91543,0 6.96817,0.2623676 6.98526,34.75 L 263,66 h 24 24 l 0.0147,-29.75 C 311.03183,1.7623676 311.08457,1.5 318,1.5 c 6.91543,0 6.96817,0.2623676 6.98526,34.75 L 325,66 h 23.5 23.5 l 0.0147,-29.75 C 372.03183,1.7623676 372.08457,1.5 379,1.5 c 6.9125,0 6.96816,0.2758026 6.98526,34.612119 L 386,65.724237 400.38165,66.21248 c 13.36019,0.453565 14.83396,0.700905 20.75,3.482431 8.11426,3.815057 14.3675,10.078497 18.19955,18.229246 2.87257,6.109929 3.04262,7.198253 3.47641,22.250003 L 443.26372,126 l 29.61814,0.0147 C 507.22478,126.0318 507.5,126.0874 507.5,133 c 0,6.91543 -0.26237,6.96817 -34.75,6.98526 L 443,140 v 23.5 23.5 l 29.75,0.0147 c 34.48763,0.0171 34.75,0.0698 34.75,6.98526 0,6.91543 -0.26237,6.96817 -34.75,6.98526 L 443,201 v 24 24 l 29.75,0.0147 c 34.48763,0.0171 34.75,0.0698 34.75,6.98526 0,6.91543 -0.26237,6.96817 -34.75,6.98526 L 443,263 v 23.5 23.5 l 29.75,0.0147 c 34.48763,0.0171 34.75,0.0698 34.75,6.98526 0,6.91543 -0.26237,6.96817 -34.75,6.98526 L 443,324 v 24 24 l 29.75,0.0147 c 34.48763,0.0171 34.75,0.0698 34.75,6.98526 0,6.91259 -0.27541,6.96816 -34.61614,6.98526 L 443.26773,386 l -0.52308,15.25 c -0.35055,10.21996 -1.04103,16.65544 -2.09338,19.51098 -3.61191,9.80086 -12.10805,18.35547 -21.65127,21.80029 -2.96738,1.07113 -9.35331,1.81 -18.75,2.16943 l -14.25,0.54506 -0.0147,30.11212 C 385.96818,510.27294 385.92301,510.5 379,510.5 c -6.92586,0 -6.96818,-0.2136 -6.98526,-35.25 L 372,445 H 348.5 325 l -0.0147,30.25 c -0.0171,35.0364 -0.0594,35.25 -6.98526,35.25 -6.92586,0 -6.96818,-0.2136 -6.98526,-35.25 L 311,445 h -24 -24 l -0.0147,30.25 c -0.0171,35.0364 -0.0594,35.25 -6.98526,35.25 -6.92586,0 -6.96818,-0.2136 -6.98526,-35.25 L 249,445 h -24 -24 l -0.0147,30.25 c -0.0171,35.0364 -0.0594,35.25 -6.98526,35.25 -6.92586,0 -6.96818,-0.2136 -6.98526,-35.25 L 187,445 H 163.5 140 l -0.0147,30.25 c -0.0168,34.54877 -0.11386,35.07175 -6.59512,35.54951 -2.87793,0.21214 -4.47538,-0.19682 -5.47661,-1.40208 z m 288.59505,-80.26241 c 5.0108,-2.27636 10.06353,-7.93477 11.49099,-12.86844 0.77163,-2.66694 1.00376,-50.20731 0.79511,-162.83974 L 428.5,94.353678 425.74146,90.185377 c -1.51719,-2.292565 -4.63433,-5.409643 -6.92697,-6.926839 L 414.64606,80.5 H 256 97.353942 l -4.168433,2.758538 c -2.292638,1.517196 -5.409775,4.634274 -6.926971,6.926839 L 83.5,94.353678 83.205321,253.42684 c -0.208649,112.63243 0.02348,160.1728 0.795109,162.83974 1.427464,4.93367 6.480192,10.59208 11.490993,12.86844 3.822615,1.73658 11.268777,1.82106 160.508577,1.82106 149.2398,0 156.68596,-0.0845 160.50858,-1.82106 z M 133.34375,403.97027 c -9.56722,-1.91971 -18.41389,-9.39165 -21.93797,-18.52892 C 109.56807,380.67649 109.5,376.05318 109.5,256 c 0,-120.31751 0.0644,-124.66703 1.91743,-129.47183 2.51906,-6.53186 9.37506,-13.73428 15.86881,-16.67061 L 132.5,107.5 H 256 379.5 l 5.21376,2.35756 c 6.49375,2.93633 13.34975,10.13875 15.86881,16.67061 1.85302,4.8048 1.91743,9.15432 1.91743,129.47183 0,120.31751 -0.0644,124.66703 -1.91743,129.47183 -2.51906,6.53186 -9.37506,13.73428 -15.86881,16.67061 L 379.5,404.5 l -121,0.15212 c -66.55,0.0837 -122.87031,-0.22317 -125.15625,-0.68185 z M 168,363.18521 v -27.81479 l -3.46363,-1.65168 c -5.13055,-2.44659 -8.83291,-8.67023 -9.34163,-15.7032 -0.50893,-7.03593 1.01235,-12.04287 5.05956,-16.65239 C 172.79681,287.07802 196,296.41719 196,315.75062 c 0,2.81555 -0.4776,6.38598 -1.06133,7.93428 -1.37942,3.65878 -6.43352,8.86322 -10.06996,10.36948 L 182,335.24264 V 363.12132 391 h 15 15 v -32.30422 -32.30422 l 3.12734,-4.94578 c 1.72003,-2.72018 4.93834,-7.11482 7.15179,-9.76586 l 4.02446,-4.82008 -1.6518,-3.46385 c -3.96962,-8.32438 -1.19637,-19.44977 6.36583,-25.53772 6.82551,-5.49487 19.6119,-5.56522 26.05542,-0.14335 10.17892,8.56499 8.97152,27.13159 -2.27099,34.92202 -3.6226,2.51027 -5.02888,2.86306 -11.41252,2.86306 h -7.28079 l -5.04543,6.5 -5.04543,6.5 -0.009,31.25 L 226,391 l 75.75,-0.002 c 84.4654,-0.002 80.13967,0.34931 84.98007,-6.89633 2.15948,-3.23255 2.26993,-4.31521 2.26993,-22.25 V 343 h -38.56574 c -26.38047,0 -39.25588,-0.35216 -40.75,-1.11458 -1.20134,-0.61302 -4.44265,-3.30733 -7.2029,-5.98735 -4.92934,-4.78608 -5.09837,-4.85875 -9.5,-4.08455 -12.17345,2.14116 -23.38364,-4.72199 -25.87562,-15.84167 -3.22819,-14.40486 10.46125,-28.0943 24.86611,-24.86611 11.14025,2.49659 18.02056,13.73549 15.82178,25.84468 -0.77067,4.24424 -0.63621,4.62646 2.90208,8.25 L 314.4059,329 H 351.70295 389 V 313.5 298 l -24.75,-0.004 c -27.8675,-0.004 -27.96573,-0.0267 -34.24769,-7.84376 -2.83745,-3.53083 -3.52506,-3.90425 -5.68037,-3.0848 -3.58678,1.36369 -11.89398,1.13795 -15.63428,-0.42484 -1.78646,-0.74643 -4.76129,-2.87033 -6.61074,-4.71978 -13.55826,-13.55827 -4.62549,-34.97296 14.55841,-34.90112 14.49264,0.0543 22.892,10.34865 20.22314,24.7858 l -1.00831,5.45447 3.77787,3.86888 L 343.4059,285 H 366.20295 389 l -0.004,-76.75 c -0.004,-74.82066 -0.0537,-76.83193 -1.99086,-80.00914 -3.93906,-6.46058 -6.581,-7.23294 -24.7554,-7.23712 L 346,121 v 33 c 0,21.26977 0.35444,33 0.99712,33 2.20796,0 8.99001,7.39943 10.56714,11.52909 2.42504,6.34988 1.62213,15.07977 -1.87264,20.36072 -8.4061,12.70248 -28.6032,11.00465 -35.75053,-3.00529 -4.93486,-9.67311 -0.21399,-24.04356 9.17639,-27.93318 L 332,186.75736 V 153.87868 121 H 315.5 299 v 19.93261 c 0,19.07223 0.0866,19.96009 2.0054,20.5691 3.29205,1.04486 7.9515,5.49349 10.03845,9.58424 2.48764,4.87617 2.52813,13.0583 0.0912,18.42263 -6.50069,14.30955 -27.32907,16.22192 -35.8839,3.29469 C 272.815,189.12206 272.5,187.71334 272.5,180.5 c 0,-7.23832 0.31049,-8.61525 2.78637,-12.35655 1.53251,-2.31578 4.34501,-4.95376 6.25,-5.86219 L 285,160.62958 V 140.81479 121 l -75.75,0.004 c -73.82282,0.004 -75.83292,0.0543 -79.00914,1.99086 -1.79253,1.09292 -4.15334,3.45373 -5.24626,5.24626 -1.88341,3.08903 -1.98732,5.09899 -1.99086,38.50914 L 123,202 h 18.81291 18.81291 l 2.85617,-2.9812 c 2.53442,-2.64537 2.72447,-3.27024 1.68709,-5.54705 C 164.52609,192.06053 164,188.36914 164,185.26867 c 0,-17.58443 17.56241,-27.44171 31.94005,-17.92704 10.39972,6.88221 12.5128,21.09621 4.52373,30.42965 -4.37299,5.10886 -10.21595,7.51219 -18.08574,7.43904 -5.86182,-0.0545 -6.28674,0.11331 -10,3.94881 C 165.86644,215.8851 165.37383,216 143.04966,216 H 123 v 16 16 h 18.73211 18.73211 l 9.78431,-9.75 9.78431,-9.75 18.88696,-0.30963 18.88696,-0.30964 1.17703,-2.84159 c 4.64829,-11.22198 23.48276,-13.61393 33.35549,-4.23609 4.28931,4.0743 5.98407,8.0974 5.98057,14.19695 -0.005,8.8937 -4.70164,16.17244 -12.55138,19.45227 -4.27754,1.78727 -12.36848,2.02646 -16.45337,0.4864 -3.65878,-1.37942 -8.86322,-6.43352 -10.36948,-10.06996 L 217.75736,242 h -16.11079 -16.11079 l -9.78459,9.75 -9.78459,9.75 -21.4833,0.30511 -21.4833,0.30511 0.004,59.19489 c 0.004,57.30343 0.0672,59.29903 1.99086,62.45403 3.98302,6.53267 6.47514,7.23294 25.7554,7.23712 L 168,391 Z M 181,321 c 4.77294,-4.77294 0.90141,-13 -6.11761,-13 -4.41604,0 -6.88239,2.68767 -6.88239,7.5 0,1.68024 0.70052,4.05512 1.5567,5.27749 2.07654,2.96468 8.57478,3.09103 11.4433,0.22251 z m 112.4433,-4.22251 C 294.29948,315.55512 295,313.18024 295,311.5 c 0,-4.74787 -2.47408,-7.5 -6.74225,-7.5 -7.15534,0 -11.08798,8.16977 -6.25775,13 2.86852,2.86852 9.36676,2.74217 11.4433,-0.22251 z m -44,-17 C 250.29948,298.55512 251,296.18024 251,294.5 c 0,-4.88932 -2.45637,-7.5 -7.0567,-7.5 -7.27574,0 -10.67151,7.46705 -5.76899,12.68555 2.97352,3.16516 9.08152,3.21499 11.26899,0.0919 z M 322,273 c 2.47833,-2.47833 2.66754,-8.6049 0.34501,-11.17126 C 320.04611,259.28848 313.61443,259.38557 311,262 c -2.67558,2.67558 -2.59296,7.73992 0.17431,10.68555 2.76831,2.94672 8.04028,3.09986 10.82569,0.31445 z M 242.68555,240.82569 C 247.90773,235.9197 244.43199,228 237.0567,228 232.45637,228 230,230.61068 230,235.5 c 0,7.07946 7.47728,10.2186 12.68555,5.32569 z M 344.4433,211.77749 C 345.29948,210.55512 346,208.18024 346,206.5 c 0,-4.74787 -2.47408,-7.5 -6.74225,-7.5 -7.15534,0 -11.08798,8.16977 -6.25775,13 2.86852,2.86852 9.36676,2.74217 11.4433,-0.22251 z m -154,-22 C 192.62978,186.65585 192.41418,181.41418 190,179 c -2.67558,-2.67558 -7.73992,-2.59296 -10.68555,0.17431 -3.16516,2.97352 -3.21499,9.08152 -0.0919,11.26899 3.3937,2.37704 9.33648,2.02441 11.22079,-0.66581 z M 298,186 c 4.77294,-4.77294 0.90141,-13 -6.11761,-13 -4.41604,0 -6.88239,2.68767 -6.88239,7.5 0,1.68024 0.70052,4.05512 1.5567,5.27749 2.07654,2.96468 8.57478,3.09103 11.4433,0.22251 z"
         id="path2" />
    </g>
  </g>
</svg>
